# xmcd
#
# Track frame offsets:
#	150
#	12516
#	24708
#	45923
#	58634
#	68985
#	79730
#	96475
#	108031
#	122090
#
# Disc length: 1788 seconds
#
# Revision: 0
# Processed by: cddbd v1.4PL0 Copyright (c) Steve Scherf et al.
# Submitted via: dBpowerAMP V4.0
#
DISCID=7d06fa0a
DTITLE=Johnny Winter - Gold Collection
DYEAR=1900
DGENRE=Blues
TTITLE0=Parchman Farm
TTITLE1=Livin In The Blues
TTITLE2=Going Down Slow
TTITLE3=Leavin' Blues
TTITLE4=38, 32, 20
TTITLE5=Out Of Sight
TTITLE6=Kind Hearted Woman
TTITLE7=Avocado Green
TTITLE8=Low Down Gal Of Mine
TTITLE9=Bad News
EXTD=
EXTT0=
EXTT1=
EXTT2=
EXTT3=
EXTT4=
EXTT5=
EXTT6=
EXTT7=
EXTT8=
EXTT9=
PLAYORDER=
